<svg width="80" height="78" viewBox="0 0 80 78" fill="none" xmlns="http://www.w3.org/2000/svg">
<path d="M43.4851 53.6232C44.5545 53.6232 45.0081 52.9322 45.184 52.5194C45.3599 52.1067 45.5405 51.3044 44.7859 50.567L28.3572 34.5999C25.1354 31.4696 23.7605 26.8413 25.1632 22.6304C26.7694 17.8027 31.3291 14.6213 36.4674 14.6213H71.2597C71.2597 14.6213 71.2783 14.6074 71.269 14.5981C63.469 5.16068 51.2481 -0.682645 37.6571 0.0640021C18.238 1.126 2.14726 15.9569 0.0873124 34.7529C0.0641669 34.9755 0.0410214 35.1935 0.0410214 35.1935C-0.00526965 35.6944 -0.72741 45.475 6.41529 50.7618C10.8407 54.0359 15.8448 53.7808 17.4881 53.6232H43.4898H43.4851Z" fill="url(#paint0_linear_606_4003)"/>
<path d="M36.4674 24.374C35.3981 24.374 34.9444 25.065 34.7685 25.4778C34.5926 25.8905 34.4121 26.6928 35.1666 27.4302L51.5953 43.3973C54.8171 46.5276 56.1966 51.1559 54.794 55.3668C53.1877 60.1945 48.6326 63.3759 43.4897 63.3759H8.6974C8.6974 63.3759 8.67888 63.3898 8.68814 63.3991C18.0158 74.6869 33.6668 80.8317 50.4334 76.7181C66.538 72.7623 78.2219 59.0954 79.8976 43.0309C79.9069 42.9567 79.9115 42.8779 79.9207 42.8037C80.8975 32.8932 72.7132 24.3787 62.4737 24.3787H36.472L36.4674 24.374Z" fill="url(#paint1_linear_606_4003)"/>
<defs>
<linearGradient id="paint0_linear_606_4003" x1="22.1098" y1="14.1659" x2="56.8179" y2="51.3647" gradientUnits="userSpaceOnUse">
<stop stop-color="#5993FF"/>
<stop offset="1" stop-color="#2360FF"/>
</linearGradient>
<linearGradient id="paint1_linear_606_4003" x1="30.8086" y1="38.5194" x2="65.4617" y2="75.7353" gradientUnits="userSpaceOnUse">
<stop stop-color="#5993FF"/>
<stop offset="1" stop-color="#2360FF"/>
</linearGradient>
</defs>
</svg>
